<?xml version="1.0" encoding="UTF-8" standalone="no"?>
<!-- Created with Inkscape (http://www.inkscape.org/) -->

<svg
   version="1.1"
   id="svg9"
   width="512"
   height="512"
   viewBox="0 0 512 512"
   xmlns="http://www.w3.org/2000/svg"
   xmlns:svg="http://www.w3.org/2000/svg">
	<defs
	   id="defs13" />
	<g
	   id="g15">
		<g
		   id="g149"
		   transform="translate(6.0336744,-0.86195284)">
			<path
			   style="fill:#fdfcfc"
			   d="M -12.06734,254.27609 V -1.7239057 h 256 256 v 255.9999957 256 h -256 -256 z"
			   id="path163" />
			<path
				class="color"
			   style="fill:#df8f96"
			   d="M -12.06734,254.27609 V -1.7239057 h 256 256 v 255.9999957 256 h -256 -256 z m 258,113.07785 V 353.4318 l -6.34913,-8.41815 c -3.49201,-4.62999 -7.18904,-9.84002 -8.2156,-11.57786 l -1.86649,-3.1597 h -59.82483 -59.82483 l 0.29044,-8.25 0.29044,-8.25 55.12205,-0.25841 55.12206,-0.2584 -3.12206,-8.48435 -3.12205,-8.48435 -60.25,-0.007 -60.25,-0.007 v 25.5 25.5 h 68 68 v 8.5 8.5 h -76.5 -76.5 v -42.5 -42.5 h 67.06739 c 63.39577,0 67.04026,-0.0958 66.57196,-1.75 -0.27249,-0.9625 -0.797,-4.5625 -1.16558,-8 l -0.67014,-6.25 H 134.33447 59.93266 v 59 59 h 93 93 z m 199,11.11288 c 0,-2.17588 -1.28983,-3.92326 -5.72064,-7.75 l -5.72063,-4.94073 -43.02937,-0.55681 c -45.5124,-0.58894 -49.60518,-0.97325 -65.02936,-6.10621 -50.81299,-16.90986 -82.6008,-69.50667 -74.01199,-122.46185 6.4873,-39.99813 35.75291,-74.48307 74.01199,-87.21155 15.36317,-5.11119 18.5332,-5.40331 63.90121,-5.88848 l 42.90121,-0.45879 6.34879,-5.0876 c 5.16947,-4.14255 6.34879,-5.62631 6.34879,-7.98775 v -2.90016 l -50.75,0.42563 c -46.61558,0.39095 -51.4832,0.5923 -59.75,2.4716 -26.06733,5.9259 -45.84298,16.6565 -64.0636,34.76197 -14.95768,14.86315 -24.27522,29.88705 -31.00119,49.98732 -14.35195,42.89017 -3.96976,91.44771 26.71471,124.94484 20.15347,22.00081 49.47965,37.04133 78.85152,40.44055 4.12421,0.4773 28.31106,0.9262 53.74856,0.99755 l 46.25,0.12974 z m -34.75503,-39.64695 -5.74497,-8.45622 -27.09004,-0.0438 c -23.82661,-0.0385 -28.04291,-0.28747 -35,-2.06667 -27.21065,-6.95884 -47.07482,-25.91003 -55.55573,-53.00233 -1.96851,-6.28841 -2.33989,-9.61746 -2.33989,-20.97478 0,-11.35732 0.37138,-14.68637 2.33989,-20.97478 8.48091,-27.0923 28.34508,-46.04349 55.55573,-53.00233 6.95101,-1.77765 11.19421,-2.02939 35,-2.07649 l 27.09004,-0.0536 4.99664,-7.6964 c 2.74815,-4.23302 5.16429,-8.08234 5.36921,-8.55404 0.20524,-0.47245 -15.06347,-0.6514 -33.99664,-0.39844 -32.86847,0.43913 -34.78403,0.57002 -43.86921,2.99748 -11.67972,3.12069 -18.76505,6.21592 -28.19922,12.31885 -14.726,9.52621 -28.31018,25.63414 -34.61793,41.04947 -5.87606,14.36035 -6.65075,18.59913 -6.65075,36.39028 0,17.79115 0.77469,22.02993 6.65075,36.39028 10.26849,25.09487 34.63346,46.036 61.81715,53.13041 10.17255,2.65484 18.33276,3.19786 50.24497,3.34353 l 29.74498,0.1358 z m -17.54535,-33.54378 -3.05392,-8 h -16.61275 c -23.9724,0 -32.83222,-2.80774 -43.09232,-13.65629 -7.44774,-7.87488 -11.24871,-16.71704 -11.74679,-27.32641 -0.63843,-13.59887 3.80825,-24.2339 14.09853,-33.71915 9.78904,-9.02322 17.99232,-11.29815 40.74058,-11.29815 h 16.61275 l 3.05392,-8 3.05393,-8 h -21.32755 c -11.73016,0 -23.71221,0.49054 -26.62678,1.09009 -2.91457,0.59955 -9.12422,2.91472 -13.79922,5.14482 -24.50852,11.69123 -37.78801,39.82744 -31.46256,66.66198 3.73174,15.83119 16.12296,31.41191 30.67954,38.57644 11.63336,5.72577 15.52408,6.34598 40.40979,6.44162 l 22.12678,0.0851 z M 209.41442,238.60183 c 0.39311,-3.67085 0.94368,-7.27085 1.22348,-8 0.41938,-1.09287 -11.27888,-1.32574 -66.59825,-1.32574 H 76.93266 v -42.5 -42.5 h 76.5 76.5 v 8.5 8.5 h -68 -68 v 25.5 25.5 h 60.28557 60.28557 l 3.08804,-8.5 3.08803,-8.5 h -55.37361 -55.3736 v -8.5 -8.5 l 59.75,-0.0208 59.75,-0.0207 3.76458,-5.90548 c 2.07052,-3.24801 5.78302,-8.38332 8.25,-11.4118 l 4.48542,-5.50633 v -14.06744 -14.06745 h -93 -93 v 59 59 h 74.3835 74.38351 z"
			   id="path161" />
			<path
				class="color"
			 style="fill:#d05b66"
			 d="M -12.06734,254.27609 V -1.7239057 h 256 256 v 255.9999957 256 h -256 -256 z m 259,113.39179 v -13.6082 l -4.8535,-6.1418 c -2.66943,-3.37798 -6.55814,-8.72929 -8.64158,-11.89179 l -3.78808,-5.75 h -59.35842 -59.35842 v -8 -8 h 55 c 30.25,0 54.98785,-0.3375 54.97299,-0.75 -0.0149,-0.4125 -1.31131,-4.35 -2.88102,-8.75 l -2.854,-8 -60.61899,-0.25775 -60.61898,-0.25774 v 25.50774 25.50775 h 67.5 67.5 v 8.5 8.5 h -76 -76 v -42 -42 h 67.07196 67.07195 l -0.61399,-5.75 c -0.3377,-3.1625 -0.84047,-7.2125 -1.11727,-9 l -0.50328,-3.25 H 134.38735 59.93266 v 59.5 59.5 h 93.5 93.5 z m 197.9432,10.35821 c -0.0479,-2.743 -1.01558,-4.03 -6.20277,-8.25 l -6.14597,-5 -45.04723,-0.55009 c -43.12851,-0.52666 -45.40928,-0.64912 -53.54723,-2.87509 -32.21009,-8.81041 -57.30565,-29.00738 -71.51879,-57.5585 -16.18274,-32.50761 -16.18274,-66.52503 0,-99.03264 14.42124,-28.96914 38.82214,-48.41573 72.48799,-57.77014 6.96141,-1.9343 10.93646,-2.13489 52.57428,-2.65303 l 45.04349,-0.56051 6.20651,-5.39997 c 4.95351,-4.30979 6.20652,-5.9883 6.20652,-8.31414 v -2.91418 l -52.25,0.35915 -52.25,0.35914 -12,3.19892 c -14.5934,3.89026 -32.70527,12.51172 -44.04042,20.96375 -15.1478,11.29491 -30.57034,29.5218 -38.75334,45.80003 -4.20585,8.36659 -9.37048,24.38053 -11.08851,34.38206 -2.08159,12.11803 -2.08159,32.01245 0,44.13048 4.48003,26.08062 16.09788,48.01201 35.74154,67.47043 19.03115,18.85169 39.89369,30.1553 64.44907,34.91939 11.74964,2.27959 10.6151,2.23572 61.94166,2.39511 l 48.25,0.14983 z M 415.23235,346.0119 c -0.43983,-0.69531 -2.97944,-4.48457 -5.64359,-8.42057 l -4.8439,-7.15638 -28.6561,-0.40632 c -32.44042,-0.45998 -34.72564,-0.83762 -49.6561,-8.20583 -19.79394,-9.76834 -33.53875,-26.44898 -39.63701,-48.1033 -3.13752,-11.141 -3.13752,-27.74582 0,-38.88682 6.09826,-21.65432 19.84307,-38.33496 39.63701,-48.1033 14.76999,-7.28902 17.27275,-7.7113 49.60824,-8.37028 l 28.60824,-0.58301 5.66831,-8.32762 5.66831,-8.32763 -35.77655,0.39499 c -33.0145,0.36449 -36.39417,0.56427 -43.77655,2.58778 -9.41689,2.58116 -22.04544,8.4311 -30.2965,14.03428 -17.76528,12.06417 -32.01434,32.9532 -37.35434,54.76121 -3.02824,12.36701 -3.02824,30.38697 0,42.75398 7.82,31.93607 32.50279,58.10907 63.70017,67.54607 11.12721,3.36591 17.08966,3.82603 51.25036,3.955 25.81129,0.0974 32.13905,-0.13201 31.5,-1.14225 z m -19.30336,-32.98581 c -0.002,-0.1375 -1.31753,-3.625 -2.92335,-7.75 l -2.91966,-7.5 -18.82666,-0.5999 c -15.65075,-0.49869 -19.71143,-0.94606 -24.07156,-2.65198 -12.096,-4.73263 -19.77047,-11.47037 -24.81941,-21.79004 -10.08273,-20.60835 -1.54939,-45.8847 18.8927,-55.96152 9.03067,-4.45162 15.38679,-5.47743 34.17161,-5.5149 l 15,-0.0299 2.31911,-6.72587 c 1.27551,-3.69923 2.58184,-7.57591 2.90297,-8.61485 0.56414,-1.82513 -0.19025,-1.86989 -22.31911,-1.32442 -15.4921,0.38188 -24.57305,1.03715 -28.06429,2.02507 -26.98353,7.63562 -44.62864,30.44421 -44.62864,57.68833 0,23.23886 13.26938,44.11429 34.18945,53.78696 9.8669,4.5621 13.31813,5.02927 37.85051,5.12362 12.7875,0.0492 23.24835,-0.0231 23.24633,-0.16058 z m -186.62592,-70.5 c 0.30042,-2.0625 0.8322,-6.1125 1.18174,-9 l 0.63553,-5.25 H 144.0265 76.93266 v -42 -42 h 76 76 v 8.5 8.5 h -67.5 -67.5 v 25.50775 25.50774 l 60.61898,-0.25774 60.61899,-0.25775 2.854,-8 c 1.56971,-4.4 2.86617,-8.1125 2.88102,-8.25 0.0149,-0.1375 -24.72299,-0.25 -54.97299,-0.25 h -55 v -8.5 -8.5 h 59.35842 59.35842 l 3.78808,-5.75 c 2.08344,-3.1625 5.97215,-8.51381 8.64158,-11.89179 l 4.8535,-6.1418 v -13.6082 -13.60821 h -93.5 -93.5 v 59.5 59.5 h 74.4121 74.4121 z"
			 id="path159" />
			<path
				class="color"
			 style="fill:#c92636"
			 d="M -12.06734,254.27609 V -1.7239057 h 256 256 v 255.9999957 256 h -256 -256 z m 259,113.09167 v -13.90833 l -4.33553,-5.34167 c -2.38453,-2.93792 -6.24906,-8.15417 -8.58784,-11.59167 l -4.25232,-6.25 h -59.41215 -59.41216 v -8 -8 h 55 c 43.3645,0 54.98764,-0.26444 54.94156,-1.25 -0.0321,-0.6875 -1.32596,-4.625 -2.87516,-8.75 l -2.81674,-7.5 -61.12483,-0.25769 -61.12483,-0.25768 v 25.50768 25.50769 h 68 68 v 8 8 h -76 -76 v -41.5 -41.5 h 67.06872 67.06873 l -0.69628,-8.25 c -0.38295,-4.5375 -0.89044,-8.5875 -1.12774,-9 -0.23731,-0.4125 -33.92991,-0.75 -74.87245,-0.75 H 59.93266 v 59.5 59.5 h 93.5 93.5 z m 198,10.58294 c 0,-2.87419 -0.85429,-4.01852 -6.29609,-8.43369 l -6.29608,-5.1083 -44.45392,-0.36531 c -44.42175,-0.36505 -44.46098,-0.36724 -54.23126,-3.01565 -24.68873,-6.69234 -46.75597,-21.6752 -62.22959,-42.25166 -6.45286,-8.58086 -14.00754,-24.38007 -17.21405,-36 -2.55285,-9.25118 -2.75949,-11.38532 -2.75949,-28.5 0,-16.95789 0.22096,-19.29189 2.65072,-28 5.33364,-19.1154 13.68499,-33.73253 27.40314,-47.96293 14.37013,-14.90674 32.07816,-25.35822 52.14927,-30.7791 9.75099,-2.63358 9.89694,-2.64173 54.14363,-3.02335 l 44.36628,-0.38265 6.30145,-5.17599 c 5.34203,-4.38791 6.31397,-5.67941 6.38372,-8.48248 l 0.0823,-3.3065 -52.75,0.34512 -52.75,0.34512 -9.5,2.59621 c -43.93884,12.00787 -75.7801,40.75583 -90.37232,81.59288 -9.38823,26.27341 -9.39163,58.11808 -0.009,84.46734 13.36649,37.53724 44.25371,67.25974 82.30308,79.1995 16.28522,5.11025 19.90649,5.38073 73.32827,5.47709 l 49.74997,0.0897 z m -29,-31.09488 c 0,-0.23115 -2.47278,-4.01001 -5.49508,-8.39746 l -5.49507,-7.97719 -28.25493,-0.4655 c -22.81692,-0.3759 -29.50592,-0.80554 -34.75492,-2.23236 -14.77656,-4.01664 -26.96784,-11.34677 -37.09072,-22.30116 -7.9094,-8.5591 -13.13602,-17.25541 -16.65177,-27.70606 -2.46191,-7.31809 -2.69132,-9.32119 -2.69132,-23.5 0,-14.17881 0.22941,-16.18191 2.69132,-23.5 8.27733,-24.60457 28.63924,-43.40077 54.24249,-50.07157 5.62496,-1.46555 12.44248,-1.9323 34.70645,-2.37612 l 27.70645,-0.55231 5.49613,-8 5.49612,-8 -32.98692,-0.26352 c -29.06083,-0.23216 -34.08496,-0.0392 -42.21261,1.62116 -48.94772,9.99936 -81.71829,57.66675 -73.20543,106.48309 6.74033,38.65191 35.88707,68.47858 74.42447,76.16061 4.57341,0.91166 16.85088,1.33934 40.32534,1.40469 18.5625,0.0517 33.75,-0.0951 33.75,-0.3263 z m -20,-33.38554 c 0,-0.4432 -1.30234,-4.3807 -2.89408,-8.75 l -2.89408,-7.94419 -20.38232,-0.5 -20.38233,-0.5 -6.75322,-3.32725 c -32.09201,-15.81142 -32.06299,-60.66434 0.0494,-76.36851 l 6.75663,-3.30424 20.35592,-0.5 20.35592,-0.5 2.89408,-7.94419 c 1.59174,-4.3693 2.89408,-8.35426 2.89408,-8.85547 0,-0.53418 -9.62089,-0.73882 -23.25,-0.49452 -22.11902,0.39648 -23.63078,0.54847 -31.07783,3.12453 -13.60171,4.70505 -24.29891,12.85274 -31.61261,24.07823 -18.27299,28.04647 -10.21683,64.84077 18.16146,82.94742 6.11453,3.90135 15.17286,7.38532 22.29839,8.57629 6.49377,1.08539 45.48059,1.30989 45.48059,0.2619 z M 209.24609,245.52609 c 0.2373,-0.4125 0.74479,-4.4625 1.12774,-9 l 0.69628,-8.25 H 144.00138 76.93266 v -42 -42 h 76 76 v 8.5 8.5 h -68 -68 v 25.50769 25.50768 l 61.10381,-0.25768 61.1038,-0.25769 2.8962,-7.94419 c 1.5929,-4.3693 2.89619,-8.0818 2.89619,-8.25 0,-0.1682 -24.75,-0.30581 -55,-0.30581 h -55 v -8.5 -8.5 h 59.47695 59.47694 l 1.72498,-2.75 c 0.94873,-1.5125 4.7841,-6.87048 8.52305,-11.90663 l 6.79808,-9.15663 v -13.59337 -13.59337 h -93.5 -93.5 v 59.5 59.5 h 74.44098 c 40.94254,0 74.63514,-0.3375 74.87245,-0.75 z"
			 id="path157" />
			<path
				class="color"
			 style="fill:#c32332"
			 d="m -12.06734,341.77609 v -168.5 h 36 36 v 36.5 36.5 h 75 75 v -2.85331 c 0,-1.56932 0.28911,-5.61932 0.64246,-9 l 0.64245,-6.14669 H 144.07512 76.93266 v -27.5 -27.5 h 8 8 v 19.5 19.5 h 61.26333 61.26334 l 2.76712,-8.25 c 1.52192,-4.5375 2.75342,-8.5875 2.73667,-9 -0.0168,-0.4125 -24.78046,-0.75 -55.03046,-0.75 h -55 v -8 -8 h 59.83102 59.83102 l 1.33796,-2.5 c 1.32804,-2.48147 1.44038,-2.5 15.15348,-2.5 h 13.81552 l -4.89309,6.75 c -21.88116,30.18499 -29.15744,69.77574 -19.59088,106.59541 12.49578,48.09364 52.42416,84.58385 101.89596,93.12188 7.15531,1.23489 18.37683,1.53271 57.75,1.53271 h 48.86901 v -3.30927 c 0,-2.7843 -0.90754,-4.09307 -5.72079,-8.25 l -5.72078,-4.94073 -44.02922,-0.55595 c -47.90201,-0.60486 -49.88288,-0.80955 -66.49093,-6.87074 -16.20339,-5.9135 -29.90777,-14.93989 -41.98332,-27.6523 -40.38655,-42.51653 -40.26858,-108.29605 0.27111,-151.17101 l 4.96404,-5.25 h 13.02073 13.02073 l -5.91579,4.09365 c -17.96648,12.43258 -31.75934,32.03855 -37.57152,53.40635 -3.10585,11.41826 -3.13897,35.48979 -0.0643,46.69847 8.85704,32.2878 32.5293,56.52817 64.93167,66.48996 8.76043,2.69331 8.90657,2.70309 46.04859,3.0818 l 37.26026,0.37991 -5.51026,-7.68016 c -3.0306,-4.22409 -5.51022,-8.03252 -5.51022,-8.46318 0,-0.43066 -12.7125,-0.99686 -28.25,-1.25823 -24.80176,-0.41722 -29.21941,-0.73703 -36.19198,-2.62008 -22.05044,-5.95509 -38.9043,-19.84103 -49.09213,-40.44715 -6.16656,-12.4726 -7.86053,-20.98921 -7.17321,-36.06401 0.6215,-13.63104 2.37062,-20.37812 8.11853,-31.31641 7.44657,-14.17085 18.12799,-24.71677 32.72732,-32.31218 13.96997,-7.26798 19.44153,-8.19609 51.50128,-8.73587 l 28.13981,-0.47378 1.08875,-2.38954 1.08875,-2.38955 h 46.02144 46.02144 v 168.5 168.5 h -256 -256 z m 259,25.48486 V 353.2458 l -6.02845,-7.58616 c -3.31564,-4.17239 -7.02814,-9.33711 -8.25,-11.47716 l -2.22155,-3.89099 -59.75,-0.008 -59.75,-0.008 v -8 -8 h 55.39402 55.39403 l -3.14403,-8.99364 -3.14402,-8.99365 -61.26688,-0.006 -61.26688,-0.006 0.26688,25.75 0.26688,25.75 67.75,0.25699 67.75,0.25699 v 7.49301 7.49301 h -76 -76 v -41.5 -41.5 h 67.14246 67.14245 l -0.64245,-6.14669 c -0.35335,-3.38139 -0.64246,-7.43139 -0.64246,-9.00071 v -2.85331 h -75 -75 v 59.5 59.5 h 93.5 93.5 z m 147.8383,-58.23486 c -1.17288,-2.8875 -2.60068,-6.9053 -3.1729,-8.92845 l -1.04039,-3.67845 -20.0625,-0.32155 -20.06251,-0.32155 -6.75853,-3.20145 c -17.64808,-8.35973 -27.12369,-25.53936 -24.57123,-44.54855 1.80704,-13.45781 11.2067,-25.7179 24.57123,-32.04855 l 6.75853,-3.20145 20.00239,-0.32086 20.0024,-0.32086 3.14163,-8.92914 3.14163,-8.92914 -21.14403,0.0174 c -14.6981,0.0121 -23.27802,0.46541 -28.14402,1.48704 -22.50779,4.72557 -41.27003,23.48781 -45.9956,45.9956 -5.92619,28.22628 8.85987,56.4441 35.42515,67.60565 9.57947,4.02487 14.61053,4.64425 38.80586,4.77745 l 21.23541,0.11686 z"
			 id="path155" />
			<path
				class="color"
			 style="fill:#bc202e"
			 d="m -12.06734,403.27609 v -107 h 36 36 v 42.5 42.5 h 93.5 93.5 v -13.98406 -13.98407 l -6.33457,-8.26593 c -3.48402,-4.54627 -7.18104,-9.72844 -8.21561,-11.51594 l -1.88104,-3.25 h -59.78439 -59.78439 v -8 -8 h 55.60699 c 52.56239,0 55.56818,-0.0958 54.89818,-1.75 -2.68876,-6.63834 -5.50517,-14.45182 -5.50517,-15.27283 0,-0.57973 4.69006,-0.97717 11.53138,-0.97717 10.08451,0 11.60751,0.21958 12.13804,1.75 0.33365,0.9625 2.34464,5.52503 4.46886,10.13896 14.28314,31.02379 42.93105,56.3498 75.94421,67.138 17.1365,5.59994 21.78068,5.96635 75.66751,5.96985 l 49.25,0.003 v -3.27754 c 0,-2.74298 -0.95393,-4.11722 -5.84872,-8.4258 l -5.84873,-5.14826 -44.40127,-0.38284 c -44.05532,-0.37985 -44.47588,-0.403 -53.97505,-2.97189 -32.14473,-8.69298 -57.0784,-28.34552 -71.73837,-56.54367 l -4.28911,-8.25 h 8.41882 8.41882 l 3.88181,6.66687 c 4.75596,8.16823 16.626,20.98819 24.80324,26.78818 11.297,8.0128 25.83779,14.16049 39.01222,16.49397 3.37012,0.59692 20.54126,1.05098 39.74497,1.05098 h 33.81132 l -5.74498,-8.3741 -5.74497,-8.37409 -28,-0.48923 c -24.16231,-0.42218 -29.04654,-0.77247 -35.63565,-2.55575 -14.87995,-4.02712 -29.79682,-13.41029 -39.12369,-24.61003 l -5.07728,-6.0968 9.72297,-0.28687 9.72297,-0.28687 4.62488,4.07097 c 2.54368,2.23904 7.80658,5.63647 11.69534,7.54984 10.85698,5.34194 17.93563,6.41565 42.42745,6.43557 19.96163,0.0162 21.30817,-0.097 20.60978,-1.73264 -1.88431,-4.41319 -5.46677,-14.43654 -5.46677,-15.29549 0,-0.59434 20.56486,-0.95451 54.5,-0.95451 h 54.5 v 107 107 h -256 -256 z m 89,-73.5 v -33.5 h 8 8 v 26 26 h 68 68 v 7.5 7.5 h -76 -76 z"
			 id="path153" />
			<path
				class="color"
			 style="fill:#b81e2b"
			 d="m -12.06734,470.27609 v -40 h 256 256 v 40 40 h -256 -256 z"
			 id="path151" />
		</g>
	</g>
</svg>
